<svg height='100px' width='100px'  fill="#105099" xmlns="http://www.w3.org/2000/svg" xmlns:xlink="http://www.w3.org/1999/xlink" version="1.1" x="0px" y="0px" viewBox="0 0 90 90" style="enable-background:new 0 0 90 90;" xml:space="preserve"><g><path d="M81.1,57.9c0-0.1-0.1-0.2-0.1-0.3c0-0.1-4-7-7.5-14.3c-3.3-6.9-3.6-14.2-3.6-14.3c0-0.2-0.1-0.5-0.1-0.7   c-0.3-0.9-1-1.6-1.9-1.9c-0.9-0.4-1.8-0.4-2.7,0v0c-3.5,1.4-5.2,4.1-5.8,6.9c-0.2-1.6-0.2-2.5-0.2-2.6c0-0.2-0.1-0.5-0.1-0.7   c-0.3-0.9-1-1.6-1.9-1.9c-0.9-0.4-1.8-0.4-2.7,0c-1.2,0.5-2.1,1.1-3,1.9l-9.4-9.4c-2.3-2.3-5.9-2.6-8.5-0.8   c-0.9,0.7-1.6,1.6-2.1,2.5l-0.1-0.1c-1.4-1.4-3.4-2.1-5.3-1.9c-1.2,0.1-2.3,0.5-3.2,1.2c-0.9,0.7-1.6,1.6-2.1,2.5L20.8,24   c-1.2-1.2-2.9-1.9-4.6-1.9c-1.7,0-3.4,0.7-4.6,1.9c-1.2,1.2-1.9,2.9-1.9,4.6c0,1.7,0.7,3.4,1.9,4.6l1.5,1.5c-1,0.5-1.9,1.2-2.5,2.1   C8.7,39.3,9,43,11.3,45.3l1.2,1.2c-1,0.5-1.9,1.2-2.5,2.1c-1.8,2.5-1.5,6.2,0.8,8.5l28.7,28.7c1.5,1.5,3.5,2.3,5.6,2.3   s4-0.8,5.6-2.3l0.8-0.8c1.3,0.9,2.9,1.3,4.4,1.3c2,0,4-0.8,5.6-2.3l18.2-18.2C81.5,63.7,82.2,60.6,81.1,57.9z M76.6,62.9L58.4,81.1   c-1.5,1.5-4,1.5-5.5,0l-0.3-0.3L24.3,52.5c-0.9-0.9-1.1-2.3-0.4-3.3c0.1-0.2,0.3-0.3,0.4-0.4c0,0,0.1-0.1,0.1-0.1   c0.1-0.1,0.2-0.2,0.3-0.2c0,0,0.1-0.1,0.1-0.1c0.1-0.1,0.3-0.1,0.4-0.2c0,0,0,0,0,0c0.2,0,0.3-0.1,0.5-0.1c0,0,0.1,0,0.1,0   c0.1,0,0.3,0,0.4,0c0,0,0.1,0,0.1,0c0.1,0,0.1,0,0.2,0.1l13,13l2.8-2.8L29.3,45.1l-4.4-4.4c-0.9-0.9-1.1-2.3-0.4-3.3   c0.8-1.1,2.1-1.2,3-0.8L42.9,52l2.8-2.8L29.6,33l-0.1,0.1l-4.4-4.4c-1-1-1-2.6,0-3.5c0.1-0.1,0.2-0.2,0.4-0.3   c0.1-0.1,0.2-0.1,0.3-0.2c0,0,0.1-0.1,0.1-0.1c0.3-0.1,0.6-0.2,0.9-0.2c0,0,0,0,0,0c0.6,0,1.3,0.2,1.7,0.7l2.7,2.7l-0.1,0.1   l18.9,18.9L53,44L35.2,26.2c-0.4-0.9-0.3-2.3,0.8-3c1-0.7,2.4-0.5,3.3,0.4l10.9,10.9c0,0,0,0,0,0l7.1,7.1c0,0,0,0,0,0l3.4,3.4   c0.7,0.7,1.7,0.8,2.5,0.3c0.8-0.5,1.1-1.4,0.9-2.3c-0.7-2.3-2.6-9.7,1.9-12.4c0.2,2.6,1,8.6,3.9,14.6c3.3,6.8,7,13.3,7.6,14.4   C77.8,60.7,77.5,62,76.6,62.9z"></path><path d="M38.3,14.7l2-9.9c0.1-0.3,0.1-0.5,0-0.8c-0.2-1.1-1.3-1.8-2.4-1.6c-1.1,0.2-1.8,1.3-1.6,2.4L38.3,14.7z"></path><path d="M26.6,9.3l8,6.2l-5-8.8c-0.1-0.2-0.3-0.4-0.5-0.6c-0.9-0.7-2.2-0.5-2.9,0.4C25.5,7.4,25.7,8.7,26.6,9.3z"></path><path d="M50.6,8.7c0.6-1,0.2-2.2-0.8-2.8c-1-0.6-2.2-0.2-2.8,0.8l-5,8.8l8-6.2C50.3,9.2,50.5,9,50.6,8.7z"></path></g></svg>