<svg xmlns="http://www.w3.org/2000/svg" xmlns:xlink="http://www.w3.org/1999/xlink" fill="#105099" version="1.1" x="0px" y="0px" enable-background="new 0 0 100 100" xml:space="preserve" viewBox="10.81 43.45 77.36 26.87"><g><path d="M52.11,70.315c-2.897,0-6.475-2.569-12.95-9.167c-3.292-3.354-6.849-4.857-10.568-4.477   c-8.769,0.905-15.864,11.821-15.935,11.931c-0.298,0.464-0.916,0.598-1.382,0.302c-0.465-0.298-0.6-0.917-0.302-1.382   c0.31-0.483,7.696-11.837,17.413-12.84c4.359-0.454,8.46,1.254,12.201,5.064c6.339,6.459,9.827,8.931,12.032,8.522   c2.452-0.451,4.362-4.815,7.252-11.421l0.718-1.637c2.253-5.125,4.94-8.02,8.214-8.849c5.238-1.327,10.801,2.995,16.179,7.174   c0.554,0.43,1.107,0.86,1.659,1.283c0.438,0.336,0.521,0.963,0.185,1.402c-0.336,0.439-0.963,0.521-1.402,0.185   c-0.555-0.426-1.112-0.858-1.669-1.291C78.756,51.23,73.588,47.21,69.294,48.3c-2.637,0.667-4.885,3.191-6.874,7.714l-0.716,1.634   c-3.259,7.448-5.227,11.944-8.723,12.587C52.696,70.288,52.406,70.315,52.11,70.315z"></path></g><g><path d="M74.744,59.739c-0.471,0-0.891-0.334-0.981-0.814c-0.103-0.543,0.254-1.066,0.796-1.168l11.142-2.108L80.402,44.89   c-0.244-0.496-0.04-1.095,0.455-1.339c0.496-0.246,1.095-0.041,1.339,0.455l5.879,11.939c0.138,0.28,0.137,0.609-0.002,0.889   c-0.14,0.279-0.402,0.478-0.708,0.536l-12.434,2.352C74.868,59.734,74.806,59.739,74.744,59.739z"></path></g></svg>
