<svg xmlns="http://www.w3.org/2000/svg" viewBox="0 0 18 14.6"><defs><style>.cls-1{fill:#105099;}</style></defs><g id="Layer_2" data-name="Layer 2"><g id="Layer_1-2" data-name="Layer 1"><path class="cls-1" d="M15.89,2.31a3.55,3.55,0,0,0,1.61-2,8.71,8.71,0,0,1-2.35.86A3.49,3.49,0,0,0,12.49,0,3.64,3.64,0,0,0,9.84,1.08a3.58,3.58,0,0,0-1.07,2.6,2.86,2.86,0,0,0,.11.82A9.86,9.86,0,0,1,1.26.66,3.75,3.75,0,0,0,.75,2.51,3.56,3.56,0,0,0,2.39,5.6,4,4,0,0,1,.75,5.13,3.69,3.69,0,0,0,3.68,8.81a3.93,3.93,0,0,1-1,.12A1.72,1.72,0,0,1,2,8.84a3.5,3.5,0,0,0,1.29,1.84,3.57,3.57,0,0,0,2.15.75A7.24,7.24,0,0,1,.9,13,6.4,6.4,0,0,1,0,13,10.23,10.23,0,0,0,5.68,14.6,10,10,0,0,0,11.35,13,10.12,10.12,0,0,0,15,9a10.8,10.8,0,0,0,1.17-4.89V3.64A7.75,7.75,0,0,0,18,1.72,8.18,8.18,0,0,1,15.89,2.31Z"/></g></g></svg>